<svg width="405.2" height="94.9" xmlns="http://www.w3.org/2000/svg" version="1.1" xml:space="preserve">
 <g>
  <title>Layer 1</title>
  <g id="svg_1" stroke="null">
   <path id="svg_16" d="m52.60001,8.94998c-1.91538,0 -2.55385,1.43636 -3.83077,2.87273l-37.03077,68.22727c-0.63846,0.71818 -0.63846,2.15455 -0.63846,2.87273c0,3.59091 2.55385,5.02727 4.46923,5.02727l74.06154,0c2.55385,0 4.46923,-1.43636 4.46923,-5.02727c0,-1.43636 0,-1.43636 -0.63846,-2.87273l-36.39231,-68.22727c-1.27692,-1.43636 -2.55385,-2.87273 -4.46923,-2.87273zm0,10.77273l21.06923,39.5l-5.10769,0l-9.57692,-10.77273l-6.38462,10.77273l-6.38462,-10.77273l-9.57692,10.77273l-5.74615,0l21.70769,-39.5z" fill="rgb(255,255,255)" stroke="#ffffff"/>
  </g>
  <text style="cursor: move;" fill="#ffffff" x="137.19847" y="38.45001" id="svg_17" font-size="24" font-family="'Roboto Mono'" text-anchor="start" xml:space="preserve" stroke="#ffffff" transform="matrix(4.33129 0 0 3.16051 -475.138 -47.1224)" font-weight="normal" stroke-width="2">PEAK</text>
 </g>

</svg>