<svg id="eamzn8OoigK1" xmlns="http://www.w3.org/2000/svg" xmlns:xlink="http://www.w3.org/1999/xlink" viewBox="0 0 15 15" shape-rendering="geometricPrecision" text-rendering="geometricPrecision"><path id="eamzn8OoigK2" d="M7.5,2C7.2,2,7.1,2.2,6.9,2.4L1.1,11.9C1,12,1,12.2,1,12.3C1,12.8,1.4,13,1.7,13L13.3,13C13.7,13,14,12.8,14,12.3C14,12.1,14,12.1,13.9,11.9L8.2,2.4C8,2.2,7.8,2,7.5,2ZM7.5,3.5L10.8,9L10,9L8.5,7.5L7.5,9L6.5,7.5L5,9L4.1,9L7.5,3.5Z" fill="rgb(255,255,255)" stroke="none" stroke-width="1"/></svg>